<svg xmlns="http://www.w3.org/2000/svg" xmlns:xlink="http://www.w3.org/1999/xlink" width="35.774" height="84.274" viewBox="0 0 35.774 84.274">
  <defs>
    <clipPath id="clip-path">
      <rect id="Rectángulo_342951" data-name="Rectángulo 342951" width="35.774" height="84.275" fill="none"/>
    </clipPath>
    <clipPath id="clip-path-3">
      <rect id="Rectángulo_342947" data-name="Rectángulo 342947" width="9.688" height="2.373" fill="none"/>
    </clipPath>
    <clipPath id="clip-path-4">
      <rect id="Rectángulo_342948" data-name="Rectángulo 342948" width="29.463" height="17.051" fill="none"/>
    </clipPath>
    <clipPath id="clip-path-5">
      <rect id="Rectángulo_342949" data-name="Rectángulo 342949" width="2.677" height="28.633" fill="none"/>
    </clipPath>
  </defs>
  <g id="Grupo_981420" data-name="Grupo 981420" clip-path="url(#clip-path)">
    <g id="Grupo_981419" data-name="Grupo 981419">
      <g id="Grupo_981418" data-name="Grupo 981418" clip-path="url(#clip-path)">
        <path id="Trazado_655593" data-name="Trazado 655593" d="M9.891,1.573c.084-.277.35-.365.652-.188l26.2,15.127a1.376,1.376,0,0,1,.5.537l2.113-1.236a1.393,1.393,0,0,0-.49-.522L12.667.164a1.483,1.483,0,0,0-1.357,0L10.543.6a1.529,1.529,0,0,0-.652.971" transform="translate(-3.768 0)" fill="#fdc77f"/>
        <path id="Trazado_655595" data-name="Trazado 655595" d="M9.849,2.573l0,26.206a1.507,1.507,0,0,0,.674,1.174L35.288,44.246l1.44.835a.687.687,0,0,0,.1.052c.006,0,.011,0,.015,0,.324.115.558-.067.558-.449V18.483a1.339,1.339,0,0,0-.183-.636,1.364,1.364,0,0,0-.5-.537L10.527,2.181c-.3-.178-.569-.089-.652.188,0,.016,0,.032-.011.053a.736.736,0,0,0-.015.151" transform="translate(-3.752 -0.796)" fill="#d9953b"/>
        <path id="Trazado_655596" data-name="Trazado 655596" d="M53.463,54.073c.026.011.052.021.084.032a.461.461,0,0,0,.115.031,1.006,1.006,0,0,0,.177.032c.058,0,.12.011.178.011a1.711,1.711,0,0,0,.365-.042,1.206,1.206,0,0,0,.318-.12l.762-.443A1.491,1.491,0,0,0,56.14,52.4V26.2a1.4,1.4,0,0,0-.188-.652l-2.113,1.236a1.349,1.349,0,0,1,.183.637V53.624c0,.381-.235.564-.558.449" transform="translate(-20.366 -9.731)" fill="#f4a338"/>
        <path id="Trazado_655598" data-name="Trazado 655598" d="M6.809,30.884.123,24.605a.462.462,0,0,1,.38-.773l6.306.55Z" transform="translate(0 -9.078)" fill="#d9953b"/>
        <path id="Trazado_655599" data-name="Trazado 655599" d="M10.147,21.442,6.984,23.266.677,22.714a.479.479,0,0,0-.218.032c.5-.3,2.892-1.675,3.121-1.8a.437.437,0,0,1,.265-.053Z" transform="translate(-0.175 -7.959)" fill="#fdc77f"/>
        <path id="Trazado_655601" data-name="Trazado 655601" d="M47.753,51.258v-17.3a.892.892,0,0,0-.4-.7l-1.085-.626c-.223-.129-.4-.025-.4.233v17.3a.892.892,0,0,0,.4.7l1.085.626c.223.129.4.024.4-.233" transform="translate(-17.47 -12.41)" fill="#fafafa"/>
        <path id="Trazado_655602" data-name="Trazado 655602" d="M41.641,46.384V26.9a.892.892,0,0,0-.4-.7l-1.085-.626c-.223-.129-.4-.024-.4.233V45.292a.893.893,0,0,0,.4.7l1.085.626c.223.129.4.024.4-.233" transform="translate(-15.142 -9.722)" fill="#fafafa"/>
        <path id="Trazado_655603" data-name="Trazado 655603" d="M35.529,47.451V35.437a.89.89,0,0,0-.4-.7l-1.085-.627c-.223-.128-.4-.024-.4.233V46.359a.892.892,0,0,0,.4.7l1.085.626c.223.129.4.024.4-.233" transform="translate(-12.814 -12.973)" fill="#fafafa"/>
        <path id="Trazado_655604" data-name="Trazado 655604" d="M29.417,42.671V28.609a.892.892,0,0,0-.4-.7l-1.086-.626c-.222-.129-.4-.025-.4.233V41.579a.893.893,0,0,0,.4.7l1.085.626c.223.129.4.024.4-.233" transform="translate(-10.485 -10.372)" fill="#fafafa"/>
        <path id="Trazado_655605" data-name="Trazado 655605" d="M23.3,42.769V34.6a.892.892,0,0,0-.4-.7l-1.085-.626c-.223-.129-.4-.024-.4.233v8.165a.892.892,0,0,0,.4.7L22.9,43c.222.129.4.025.4-.233" transform="translate(-8.157 -12.656)" fill="#fafafa"/>
        <path id="Trazado_655606" data-name="Trazado 655606" d="M17.192,34.965V19.849a.892.892,0,0,0-.4-.7L15.7,18.524c-.222-.129-.4-.024-.4.233V33.873a.893.893,0,0,0,.4.7l1.085.626c.223.129.4.024.4-.233" transform="translate(-5.828 -7.036)" fill="#fafafa"/>
        <path id="Trazado_655607" data-name="Trazado 655607" d="M6.809,94.176.123,87.9a.462.462,0,0,1,.38-.773l6.306.55Z" transform="translate(0 -33.188)" fill="#27debf"/>
        <path id="Trazado_655608" data-name="Trazado 655608" d="M10.147,84.734,6.984,86.558.677,86.006a.479.479,0,0,0-.218.032c.5-.3,2.892-1.675,3.121-1.8a.437.437,0,0,1,.265-.053Z" transform="translate(-0.175 -32.069)" fill="#27debf"/>
        <g id="Grupo_981411" data-name="Grupo 981411" transform="translate(0.284 52.115)" opacity="0.5">
          <g id="Grupo_981410" data-name="Grupo 981410">
            <g id="Grupo_981409" data-name="Grupo 981409" clip-path="url(#clip-path-3)">
              <path id="Trazado_655609" data-name="Trazado 655609" d="M10.147,84.734,6.984,86.558.677,86.006a.479.479,0,0,0-.218.032c.5-.3,2.892-1.675,3.121-1.8a.437.437,0,0,1,.265-.053Z" transform="translate(-0.459 -84.184)" fill="#fff"/>
            </g>
          </g>
        </g>
        <path id="Trazado_655610" data-name="Trazado 655610" d="M9.891,65.909c.084-.277.35-.365.652-.188l26.2,15.127a1.373,1.373,0,0,1,.5.538l2.113-1.237a1.393,1.393,0,0,0-.49-.522L12.667,64.5a1.483,1.483,0,0,0-1.357,0l-.767.438a1.529,1.529,0,0,0-.652.971" transform="translate(-3.768 -24.508)" fill="#27debf"/>
        <g id="Grupo_981414" data-name="Grupo 981414" transform="translate(6.123 39.828)" opacity="0.5">
          <g id="Grupo_981413" data-name="Grupo 981413">
            <g id="Grupo_981412" data-name="Grupo 981412" clip-path="url(#clip-path-4)">
              <path id="Trazado_655611" data-name="Trazado 655611" d="M9.891,65.909c.084-.277.35-.365.652-.188l26.2,15.127a1.373,1.373,0,0,1,.5.538l2.113-1.237a1.393,1.393,0,0,0-.49-.522L12.667,64.5a1.483,1.483,0,0,0-1.357,0l-.767.438a1.529,1.529,0,0,0-.652.971" transform="translate(-9.891 -64.336)" fill="#fff"/>
            </g>
          </g>
        </g>
        <path id="Trazado_655612" data-name="Trazado 655612" d="M9.849,66.909l0,26.206a1.507,1.507,0,0,0,.674,1.174l24.761,14.293,1.44.835a.687.687,0,0,0,.1.052c.006,0,.011,0,.015,0,.324.115.558-.067.558-.449V82.819a1.339,1.339,0,0,0-.183-.636,1.364,1.364,0,0,0-.5-.537l-26.2-15.128c-.3-.178-.569-.089-.652.188,0,.016,0,.032-.011.053a.736.736,0,0,0-.015.151" transform="translate(-3.752 -25.304)" fill="#27debf"/>
        <path id="Trazado_655613" data-name="Trazado 655613" d="M53.463,118.409c.026.011.052.021.084.032a.46.46,0,0,0,.115.031,1.007,1.007,0,0,0,.177.032c.058,0,.12.011.178.011a1.712,1.712,0,0,0,.365-.042,1.206,1.206,0,0,0,.318-.12l.762-.443a1.491,1.491,0,0,0,.678-1.174v-26.2a1.4,1.4,0,0,0-.188-.652l-2.113,1.236a1.349,1.349,0,0,1,.183.637V117.96c0,.381-.235.564-.558.449" transform="translate(-20.366 -34.239)" fill="#27debf"/>
        <g id="Grupo_981417" data-name="Grupo 981417" transform="translate(33.097 55.642)" opacity="0.15">
          <g id="Grupo_981416" data-name="Grupo 981416">
            <g id="Grupo_981415" data-name="Grupo 981415" clip-path="url(#clip-path-5)">
              <path id="Trazado_655614" data-name="Trazado 655614" d="M53.463,118.409c.026.011.052.021.084.032a.46.46,0,0,0,.115.031,1.007,1.007,0,0,0,.177.032c.058,0,.12.011.178.011a1.712,1.712,0,0,0,.365-.042,1.206,1.206,0,0,0,.318-.12l.762-.443a1.491,1.491,0,0,0,.678-1.174v-26.2a1.4,1.4,0,0,0-.188-.652l-2.113,1.236a1.349,1.349,0,0,1,.183.637V117.96c0,.381-.235.564-.558.449" transform="translate(-53.463 -89.881)"/>
            </g>
          </g>
        </g>
        <path id="Trazado_655615" data-name="Trazado 655615" d="M45.788,97.678a18.274,18.274,0,0,1,2.15,5.794,16.209,16.209,0,0,1,.289,2.981,11.376,11.376,0,0,1-.289,2.648l-1.47-1.584a8.4,8.4,0,0,0,.215-1.955,11.987,11.987,0,0,0-.215-2.2,13.478,13.478,0,0,0-1.59-4.278,7.636,7.636,0,0,0-2.567-2.773V93.93a10.322,10.322,0,0,1,3.477,3.748" transform="translate(-16.118 -35.781)" fill="#fafafa"/>
        <path id="Trazado_655616" data-name="Trazado 655616" d="M33.045,96.592a4.883,4.883,0,0,1,2.15-3.311,3.448,3.448,0,0,1,3.477.267v2.378a2.542,2.542,0,0,0-2.567-.191,3.6,3.6,0,0,0-1.589,2.442,8.4,8.4,0,0,0-.215,1.955,11.988,11.988,0,0,0,.215,2.2,13.485,13.485,0,0,0,1.589,4.278,7.622,7.622,0,0,0,2.567,2.773,2.541,2.541,0,0,0,2.567.191,3.6,3.6,0,0,0,1.589-2.442l1.47,1.584a4.883,4.883,0,0,1-2.15,3.311,3.448,3.448,0,0,1-3.476-.267,10.311,10.311,0,0,1-3.477-3.748,18.254,18.254,0,0,1-2.15-5.794,16.2,16.2,0,0,1-.289-2.981,11.376,11.376,0,0,1,.289-2.648" transform="translate(-12.478 -35.399)" fill="#455a64"/>
        <path id="Trazado_655617" data-name="Trazado 655617" d="M23.035,87.827l-8.082-4.666c-.312-.18-.565-.052-.565.286a1.21,1.21,0,0,0,.565.938l8.082,4.666c.312.18.565.052.565-.286a1.213,1.213,0,0,0-.565-.938" transform="translate(-5.481 -31.648)" fill="#455a64"/>
        <path id="Trazado_655618" data-name="Trazado 655618" d="M22.405,93.9,13.3,88.659c-.312-.18-.565-.052-.565.286a1.211,1.211,0,0,0,.565.938l9.105,5.245c.312.18.565.052.565-.286a1.213,1.213,0,0,0-.565-.938" transform="translate(-4.851 -33.742)" fill="#fafafa"/>
        <path id="Trazado_655619" data-name="Trazado 655619" d="M22.405,97.926,13.3,92.681c-.312-.18-.565-.052-.565.286a1.211,1.211,0,0,0,.565.938l9.105,5.245c.312.18.565.052.565-.286a1.213,1.213,0,0,0-.565-.938" transform="translate(-4.851 -35.274)" fill="#fafafa"/>
        <path id="Trazado_655620" data-name="Trazado 655620" d="M22.405,101.948,13.3,96.7c-.312-.18-.565-.052-.565.286a1.211,1.211,0,0,0,.565.938l9.105,5.245c.312.18.565.052.565-.286a1.213,1.213,0,0,0-.565-.938" transform="translate(-4.851 -36.807)" fill="#fafafa"/>
        <path id="Trazado_655621" data-name="Trazado 655621" d="M22.405,105.971,13.3,100.726c-.312-.18-.565-.052-.565.286a1.211,1.211,0,0,0,.565.938l9.105,5.245c.312.18.565.052.565-.286a1.213,1.213,0,0,0-.565-.938" transform="translate(-4.851 -38.339)" fill="#fafafa"/>
      </g>
    </g>
  </g>
</svg>
